<svg width="36" height="35" viewBox="0 0 36 35" fill="none" xmlns="http://www.w3.org/2000/svg">
<path d="M7.56958 33.7604L9.93616 22.9911C10.0512 22.4676 9.87817 21.9225 9.48226 21.5611L1.50086 14.2773C1.17986 13.9844 1.35964 13.4496 1.79241 13.4101L12.2457 12.4549C12.8065 12.4037 13.2913 12.0426 13.5012 11.52L17.5253 1.49756C17.6932 1.07929 18.2853 1.07929 18.4533 1.49756L22.4774 11.52C22.6872 12.0426 23.1721 12.4037 23.7329 12.4549L34.1861 13.4101C34.6189 13.4496 34.7987 13.9844 34.4777 14.2773L26.4963 21.5611C26.1003 21.9225 25.9273 22.4676 26.0424 22.9911L28.4089 33.7604C28.5044 34.1947 28.0279 34.5282 27.6526 34.2899L18.7933 28.6643C18.3026 28.3527 17.6759 28.3527 17.1852 28.6643L8.32595 34.2899C7.95059 34.5282 7.47415 34.1947 7.56958 33.7604Z" fill="white" stroke="white"/>
</svg>
