<svg width="36" height="35" viewBox="0 0 36 35" fill="none" xmlns="http://www.w3.org/2000/svg">
<path d="M8.4451 34.2899C8.06973 34.5282 7.59329 34.1947 7.68872 33.7604L10.0553 22.9911C10.1703 22.4676 9.99731 21.9225 9.6014 21.5611L1.62001 14.2773C1.299 13.9844 1.47878 13.4496 1.91155 13.4101L12.3648 12.4549C12.9256 12.4037 13.4105 12.0426 13.6203 11.52L17.6444 1.49756C17.8123 1.07929 18.4045 1.07929 18.5724 1.49756L22.5965 11.52C22.8063 12.0426 23.2912 12.4037 23.852 12.4549L34.3052 13.4101C34.738 13.4496 34.9178 13.9844 34.5968 14.2773L26.6154 21.5611C26.2195 21.9225 26.0464 22.4676 26.1615 22.9911L28.5281 33.7604C28.6235 34.1947 28.1471 34.5282 27.7717 34.2899L18.9125 28.6643C18.4217 28.3527 17.7951 28.3527 17.3043 28.6643L8.4451 34.2899Z" stroke="white"/>
</svg>
